<?xml version="1.0" encoding="UTF-8" standalone="no"?>
<svg
   xmlns:dc="http://purl.org/dc/elements/1.1/"
   xmlns:cc="http://creativecommons.org/ns#"
   xmlns:rdf="http://www.w3.org/1999/02/22-rdf-syntax-ns#"
   xmlns:svg="http://www.w3.org/2000/svg"
   xmlns="http://www.w3.org/2000/svg"
   xmlns:sodipodi="http://sodipodi.sourceforge.net/DTD/sodipodi-0.dtd"
   xmlns:inkscape="http://www.inkscape.org/namespaces/inkscape"
   width="320"
   height="320"
   viewBox="0 0 256 256"
   version="1.1"
   id="svg2985"
   inkscape:version="0.48.1 "
   sodipodi:docname="icon.svg">
  <metadata
     id="metadata3091">
    <rdf:RDF>
      <cc:Work
         rdf:about="">
        <dc:format>image/svg+xml</dc:format>
        <dc:type
           rdf:resource="http://purl.org/dc/dcmitype/StillImage" />
      </cc:Work>
    </rdf:RDF>
  </metadata>
  <defs
     id="defs3089" />
  <sodipodi:namedview
     pagecolor="#ffffff"
     bordercolor="#666666"
     borderopacity="1"
     objecttolerance="10"
     gridtolerance="10"
     guidetolerance="10"
     inkscape:pageopacity="0"
     inkscape:pageshadow="2"
     inkscape:window-width="1600"
     inkscape:window-height="848"
     id="namedview3087"
     showgrid="false"
     inkscape:zoom="1.80625"
     inkscape:cx="197.06363"
     inkscape:cy="157.81708"
     inkscape:window-x="-4"
     inkscape:window-y="-4"
     inkscape:window-maximized="1"
     inkscape:current-layer="svg2985" />
  <path
     d="m 178.97035,12.016851 c 5.91,-4.0099999 13.38,-3.0499999 20.13,-3.2299999 5.37,0.2 11.01,-0.49 16.14,1.4599999 9.4,4.69 15.81,13.28 22.21,21.3 -0.09,1.13 -0.17,2.27 -0.24,3.41 -0.61,8.41 0.09,16.84 0.08,25.27 -0.04,4.36 -0.21,8.93 -2.26,12.89 -2.53,4.88 -6.29,8.98 -10.04,12.95 -8.91,9.09 -18.14,17.869999 -26.88,27.109999 -4.25,4.51 -9.64,7.62 -14.8,10.93 0.9,1.51 1.79,3.02 2.69,4.54 -3.57,-0.03 -7,-1.08 -10.26,-2.41 5.31,-4.67 12.32,-6.98 17.15,-12.26 7.37,-7.62 14.87,-15.109999 22.39,-22.589999 6.52,-6.48 13.4,-12.84 18.02,-20.89 4.14,-7.4 2.8,-16.2 2.83,-24.31 -0.31,-5.73 0.48,-12.11 -3,-17.08 -4.71,-6.79 -10.71,-12.83 -17.98,-16.85 -3.02,-1.72 -6.58,-1.74 -9.95,-1.75 -6.79,0.45 -13.64,0 -20.39,0.8 -3.02,0.1 -4.15,3.05 -5.22,5.36 9.49,2.69 20.11,0.42 28.86,5.62 -7.04,5.42 -16.55,2.45 -24.13,6.2 -4.93,3.63 -8.75,8.54 -13.27,12.64 -0.08,-2.12 -0.26,-4.22 -0.42,-6.32 -1.72,0.54 -3.5,0.96 -5.1,1.81 -0.83,1.56 -1.26,3.27 -1.8,4.94 2.08,0.23 4.17,0.46 6.25,0.68 -2.26,2.32 -4.58,4.58 -6.88,6.86 -0.1,-2.11 -0.31,-4.21 -0.49,-6.31 -1.72,0.55 -3.49,0.98 -5.09,1.82 -0.85,1.6 -1.27,3.37 -1.82,5.08 2.1,0.19 4.2,0.4 6.31,0.5 -2.32,2.29 -4.65,4.57 -6.92,6.9 -0.1,-2.11 -0.3,-4.2 -0.48,-6.29 -1.72,0.54 -3.48,0.97 -5.08,1.82 -0.85,1.59 -1.28,3.36 -1.82,5.07 2.1,0.19 4.2,0.4 6.31,0.5 -3.32,3.66 -6.94,7.03 -10.3,10.64 -3.6,3.75 -3.54,9.24 -4.15,14.07 -1.17,2.62 -2.32,6.89 -6.05,6 -2.24,-2.7 -1.94,-6.4 -2.09,-9.68 -0.02,-4.34 -0.52,-8.66 -1.33,-12.93 -1.93,0.91 -4.8,1.11 -5.48,3.52 -3.06,8.69 -0.9,17.98 -1.19,26.94 -0.19,6.999999 -6.16,11.539999 -10.48,16.289999 -3.68,3.6 -6.94,8.82 -12.68,8.91 5.88,-3.43 10.16,-8.85 14.93,-13.58 2.7,-2.97 6.12,-5.99 6.43,-10.259999 0.42,-5.39 -0.45,-10.78 -0.22,-16.17 0.26,-5.42 0.28,-11.26 3.42,-15.95 4.67,-7.16 10.64,-13.36 16.79,-19.25 7.34,-7.33 14.73,-14.62 21.97,-22.05 4.66,-4.75 9.85,-8.98 15.38,-12.67 z"
     id="path2991"
     inkscape:connector-curvature="0"
     style="fill:#d2d4d2" />
  <path
     d="m 184.81035,11.306851 c 6.75,-0.8 13.6,-0.35 20.39,-0.8 5.54,1.36 10.37,4.52 15.14,7.52 5.13,3.11 8.29,8.39 11.61,13.21 3.56,5.12 2.79,11.64 2.82,17.53 -0.24,5.8 0.2,12.04 -2.78,17.26 -2.49,4.37 -5.75,8.24 -9.07,11.98 -10.59,11.41 -21.74,22.259999 -32.91,33.089999 -4.2,3.91 -8.53,8.11 -14.14,9.86 -8.33,2.45 -17.08,1.34 -25.62,1.77 -5.81,0.32 -10.21,4.61 -14.24,8.34 -3.69,3.66 -7.73,7.03 -10.9,11.18 -2.16,2.77 -2.59,6.39 -2.6,9.8 0,7.44 0.63,14.87 0.59,22.31 l -0.13,0.86 c -4.75,8.78 -10.96,16.76 -18.21,23.63 -7.850004,7.49 -15.540004,15.15 -23.030004,23 -5.06,4.95 -10.08,10.58 -17.09,12.67 -10.1,2.99 -21.11,3.18 -31.21,0.08 -3.7,-1.11 -6.82,-3.55 -9.43,-6.32 -5.39,-5.73 -10.18,-12.14 -13.32,-19.39 l 0.08,-0.78 c 2.29,-9.6 -1.0799999,-20.35 4.66,-29.06 1.09,1.31 2.19,2.62 3.18,4 0.12,0.42 0.35,1.27 0.47,1.69 -0.47,8.33 -0.45,16.93 3.21,24.64 1.68,-1.7 3.98,-3.2 4.36,-5.75 1.55,-7.22 -0.15,-15.71 5.22,-21.64 11.18,-12.81 23.73,-24.33 35.7,-36.38 2.17,-2.14 4.43,-4.55 7.58,-5.08 5.9,-1.46 12.88,-0.45 17.74,-4.72 -0.01,-2.33 -0.86,-5.18 -3.38,-5.85 -5.66,-1.52 -11.63,-1.34 -17.28,-2.96 9.78,-6.29 21.76,-1.02 32.350004,-3.62 4.15,-2.25 6.56,-6.61 9.98,-9.74 3.63,-3.97 8.93,-7.24 9.84,-12.95 1.46,-9.859999 -1.55,-20.309999 2.86,-29.689999 2.45,5.09 2.07,10.79 3.03,16.21 0.39,3.12 3.52,4.89 6.45,4.76 2.47,-2.33 2.36,-5.97 2.84,-9.07 0.61,-4.83 0.55,-10.32 4.15,-14.07 3.36,-3.61 6.98,-6.98 10.3,-10.64 0.27,-0.27 0.8,-0.83 1.07,-1.1 2.27,-2.33 4.6,-4.61 6.92,-6.9 0.27,-0.27 0.82,-0.82 1.09,-1.09 2.3,-2.28 4.62,-4.54 6.88,-6.86 0.27,-0.28 0.8,-0.83 1.07,-1.11 4.52,-4.1 8.34,-9.01 13.27,-12.64 7.58,-3.75 17.09,-0.78 24.13,-6.2 -8.75,-5.2 -19.37,-2.93 -28.86,-5.62 1.07,-2.31 2.2,-5.26 5.22,-5.36 z"
     id="path2993"
     inkscape:connector-curvature="0"
     style="fill:#949698" />
  <path
     d="m 205.20035,10.506851 c 3.37,0.01 6.93,0.03 9.95,1.75 7.27,4.02 13.27,10.06 17.98,16.85 3.48,4.97 2.69,11.35 3,17.08 -0.03,8.11 1.31,16.91 -2.83,24.31 -4.62,8.05 -11.5,14.41 -18.02,20.89 -7.52,7.48 -15.02,14.969999 -22.39,22.589999 -4.83,5.28 -11.84,7.59 -17.15,12.26 3.26,1.33 6.69,2.38 10.26,2.41 5.68,0.04 11.37,-0.45 17.05,-0.08 7.3,0.26 12.92,5.45 18.95,8.89 9.3,5.59 15.18,14.97 20.69,24.01 2.27,3.82 2.17,8.41 2.23,12.7 -0.05,7.68 0.04,15.36 0.08,23.04 -0.01,5.5 -0.06,11.26 -2.61,16.28 -3.81,7.45 -8.71,14.43 -14.96,20.04 -5.36,4.86 -11.07,9.81 -18.16,11.88 -7.19,2.05 -14.75,2.12 -22.17,2.19 -7.42,-0.07 -14.98,-0.14 -22.17,-2.19 -7.32,-2.15 -13.17,-7.32 -18.68,-12.37 -5.85,-5.33 -10.43,-11.93 -14.11,-18.9 -2.55,-4.81 -2.9,-10.34 -3.18,-15.67 0.78,-9.14 -0.12,-18.37 1.16,-27.48 -0.12,6.4 0.21,12.8 -0.02,19.2 -0.04,7.11 -0.57,14.71 2.98,21.17 4.82,8.94 10.61,17.77 19.07,23.68 5.28,3.66 10.76,7.53 17.24,8.65 7.5,1.35 15.16,1.27 22.75,1.16 6.8,-0.27 13.92,-0.52 20.11,-3.67 8.77,-4.64 16.93,-10.84 22.44,-19.22 3.91,-6.11 8.55,-12.33 9.16,-19.8 0.62,-6.98 0.12,-13.98 0.23,-20.97 -0.04,-5.85 0.29,-12.12 -2.73,-17.38 -3.92,-6.82 -7.85,-13.82 -13.58,-19.32 -4.86,-5.08 -11.26,-8.16 -17.26,-11.65 -7.98,-4.69 -17.58,-3.19 -26.4,-3.49 -6.95,0.25 -14.45,-1.08 -20.87,2.33 -4.74,-2.91 -10.22,-6.5 -16.04,-4.62 -5.53,2.03 -9.43,6.72 -13.81,10.45 -3.94,3.83 -9.07,7.72 -9.32,13.72 -0.44,7.7 0.29,15.47 -0.97,23.13 0.04,-7.44 -0.59,-14.87 -0.59,-22.31 0.01,-3.41 0.44,-7.03 2.6,-9.8 3.17,-4.15 7.21,-7.52 10.9,-11.18 4.03,-3.73 8.43,-8.02 14.24,-8.34 8.54,-0.43 17.29,0.68 25.62,-1.77 5.61,-1.75 9.94,-5.95 14.14,-9.86 11.17,-10.83 22.32,-21.679999 32.91,-33.089999 3.32,-3.74 6.58,-7.61 9.07,-11.98 2.98,-5.22 2.54,-11.46 2.78,-17.26 -0.03,-5.89 0.74,-12.41 -2.82,-17.53 -3.32,-4.82 -6.48,-10.1 -11.61,-13.21 -4.77,-3 -9.6,-6.16 -15.14,-7.52 z"
     id="path2995"
     inkscape:connector-curvature="0"
     style="fill:#b0b1b2" />
  <path
     d="m 166.41035,25.496851 c 3.51,-3.14 6.45,-7.8 11.75,-7.68 0.26,1.65 0.65,3.3 0.61,4.99 -1.8,1.67 -4.11,2.65 -6.03,4.16 -1.72,1.57 -2.4,3.94 -4.03,5.58 -1.4,1.12 -3.1,1.76 -4.69,2.56 -1.26,3.86 -4.13,6.74 -7.99,8.01 -0.81,1.57 -1.47,3.26 -2.6,4.64 -1.49,1.45 -3.51,2.23 -5.01,3.67 -1.28,1.47 -2.15,3.24 -3.43,4.71 -1.41,1.28 -3.24,2 -4.7,3.22 -1.9,1.9 -2.6,4.76 -4.68,6.48 -2.68,1.17 -5.1,-0.97 -5.34,-3.63 2.28,-3.28 5.5,-5.74 8.14,-8.71 9.31,-9.35 18.65,-18.68 28,-28 z"
     id="path2997"
     inkscape:connector-curvature="0"
     style="fill:#949698" />
  <path
     d="m 180.24035,20.246851 c 6.15,-1.14 12.47,-0.36 18.28,1.87 -5.43,2.23 -11.22,3.3 -17.02,3.94 -0.43,-1.94 -0.84,-3.88 -1.26,-5.81 z"
     id="path2999"
     inkscape:connector-curvature="0"
     style="fill:#eeeeee" />
  <path
     d="m 173.14035,27.306851 c 1.92,0.15 3.85,0.31 5.78,0.47 -0.43,1.86 0.21,4.38 -1.56,5.63 -1.63,0.4 -3.33,0.4 -4.99,0.52 0.23,-2.21 0.49,-4.41 0.77,-6.62 z"
     id="path3001"
     inkscape:connector-curvature="0"
     style="fill:#eeeeee" />
  <path
     d="m 226.96035,47.166851 c 0.2,-4.69 0.04,-9.54 2.02,-13.92 1.56,1.49 3.6,2.9 3.76,5.27 0.89,5.85 0.8,11.82 0.67,17.73 0.08,5.91 -4.68,10.04 -7.51,14.75 -4.18,6.66 -10.28,11.7 -15.79,17.2 -11.31,10.71 -21.19,23.379999 -34.93,31.149999 -9.61,3.89 -20.27,-2.02 -29.91,1.81 -2.59,0.89 -4.82,2.54 -6.78,4.41 -4.81,4.52 -9.49,9.19 -14,14.02 -4.03,4.5 -4.38,10.96 -3.56,16.66 0.56,6.72 1.78,14.42 -2.52,20.22 -4.58,6.95 -9.52,13.7 -15.76,19.27 -12.310004,11.36 -22.840004,24.77 -36.850004,34.17 -4.53,3.26 -10.38,3.08 -15.7,3.15 -6.15,-0.17 -13.37,0.14 -17.72,-5.05 9.04,-1.81 18.71,-0.34 27.31,-4.24 7.06,-2.72 11.5,-9.13 16.82,-14.15 9.88,-10.46 20.4,-20.29 30.560004,-30.48 6.37,-6.07 8.53,-15.34 7.88,-23.87 -1.53,-0.05 -3.06,-0.17 -4.58,-0.04 -2.8,2.71 -4.73,6.4 -8.36,8.18 -0.3,0.18 -0.9,0.54 -1.2,0.72 -0.46,0.26 -1.370004,0.79 -1.830004,1.06 -0.48,3.57 -0.38,7.39 -2.09,10.66 -2.05,0.84 -4.25,1.21 -6.39,1.72 -0.52,2.16 -0.88,4.39 -1.76,6.44 -1.64,1.69 -4.16,0.23 -6.13,0.11 1.46,-2.95 3.75,-5.3 5.94,-7.69 1.03,-0.97 1.23,-2.62 -0.1,-3.42 -3.68,-3.41 -9.36,-4.5 -11.87,-9.17 -2.25,-4.05 -4.52,-8.58 -4.1,-13.34 1.86,-3.57 5.5,-5.84 8.6,-8.27 3.25,-2.56 7.6,-1.76 11.42,-1.65 -2,4.81 -6.99,7.12 -9.84,11.25 -1.52,3.45 -2.26,10.02 2.73,10.83 7.78,-3.91 13.14,-10.96 19.520004,-16.65 8.07,-7.99 17.08,-14.98 24.62,-23.51 7.1,-5.95 12.31,-13.67 18.92,-20.09 4.7,-4.759999 8.78,-10.239999 14.67,-13.629999 2.31,-2.65 1.07,-8.63 -3.09,-8.61 -3.15,-0.23 -6.53,0.03 -9.35,1.57 -2.84,2.71 -4.77,6.23 -7.64,8.93 -0.34,-2.39 -2.16,-5.44 0.06,-7.42 3.17,-3.2 5.98,-6.8 9.42,-9.72 4.46,-0.47 8.79,1.56 12.65,3.58 4.2,2.04 4.78,7.17 7.49,10.52 2.12,2.59 4.33,5.15 5.69,8.24 -4.45,1.28 -9,2.18 -13.56,2.99 -0.82,1.849999 -1.57,3.749999 -2.67,5.459999 -1.67,2.38 -4.53,3.61 -6.17,6.01 -0.14,2.78 3.31,4.93 5.91,3.82 7.18,-2.05 14.95,-4.4 19.94,-10.33 12.77,-13.209999 25.84,-26.119999 38.98,-38.959999 4.53,-4.67 5.79,-11.43 6.18,-17.69 z"
     id="path3003"
     inkscape:connector-curvature="0"
     style="fill:#757678" />
  <path
     d="m 165.53035,36.616851 c 1.6,-0.85 3.38,-1.27 5.1,-1.81 0.16,2.1 0.34,4.2 0.42,6.32 -0.27,0.28 -0.8,0.83 -1.07,1.11 -2.08,-0.22 -4.17,-0.45 -6.25,-0.68 0.54,-1.67 0.97,-3.38 1.8,-4.94 z"
     id="path3005"
     inkscape:connector-curvature="0"
     style="fill:#eeeeee" />
  <path
     d="m 186.75035,42.836851 c 3.81,-3.46 9.44,-4.66 14.27,-2.8 4.67,1.43 6.37,6.47 8.74,10.22 3.04,0.6 6.2,0.95 9.03,2.29 2.33,3.75 1.72,9 -0.82,12.51 -1.88,2.51 -6.48,1.89 -6.51,-1.6 l -0.25,-0.76 c -0.08,-3.12 -0.6,-6.22 -2.31,-8.89 -4.65,3.1 -7.38,8.11 -11.31,11.95 -7.44,7.32 -14.84,14.69 -21.96,22.32 -2.78,-2.1 -3.95,-5.38 -5.29,-8.44 -1.83,-4.4 -7.84,-5.14 -9.47,-9.61 -1.04,-2.71 1.59,-4.34 3.32,-5.86 8.1,-6.47 14.67,-14.61 22.56,-21.33 z"
     id="path3007"
     inkscape:connector-curvature="0"
     style="fill:#b0b1b2" />
  <path
     d="m 157.52035,44.606851 c 1.6,-0.84 3.37,-1.27 5.09,-1.82 0.18,2.1 0.39,4.2 0.49,6.31 -0.27,0.27 -0.82,0.82 -1.09,1.09 -2.11,-0.1 -4.21,-0.31 -6.31,-0.5 0.55,-1.71 0.97,-3.48 1.82,-5.08 z"
     id="path3009"
     inkscape:connector-curvature="0"
     style="fill:#eeeeee" />
  <path
     d="m 188.22035,49.306851 c 2.38,-2.01 5.09,-4.85 8.53,-3.98 3.84,0.58 6.67,4.65 5.97,8.45 -0.61,3.45 -2.8,6.36 -5.19,8.82 -4.95,5.06 -10.24,9.81 -14.83,15.22 -1.95,2.41 -4.55,4.11 -7.3,5.46 -0.73,-0.79 -1.44,-1.58 -2.17,-2.36 7.3,-2.32 11.04,-9.33 16.39,-14.2 3.28,-3.33 7.21,-6.2 9.56,-10.33 1.51,-2.56 1.08,-7 -2.39,-7.56 -3.5,0.5 -6.19,3.17 -8.86,5.27 -4.34,3.96 -8.74,7.88 -12.73,12.19 -2.76,2.86 -3.06,7.03 -3.16,10.79 -2.22,-2.3 -4.01,-4.96 -5.53,-7.75 7.43,-6.47 14.53,-13.28 21.71,-20.02 z"
     id="path3011"
     inkscape:connector-curvature="0"
     style="fill:#eeeeee" />
  <path
     d="m 187.93035,54.096851 c 2.67,-2.1 5.36,-4.77 8.86,-5.27 3.47,0.56 3.9,5 2.39,7.56 -2.35,4.13 -6.28,7 -9.56,10.33 -5.35,4.87 -9.09,11.88 -16.39,14.2 -0.44,-1.27 -0.84,-2.55 -1.19,-3.84 0.1,-3.76 0.4,-7.93 3.16,-10.79 3.99,-4.31 8.39,-8.23 12.73,-12.19 z"
     id="path3013"
     inkscape:connector-curvature="0"
     style="fill:#ffffff" />
  <path
     d="m 149.53035,52.616851 c 1.6,-0.85 3.36,-1.28 5.08,-1.82 0.18,2.09 0.38,4.18 0.48,6.29 -0.27,0.27 -0.8,0.83 -1.07,1.1 -2.11,-0.1 -4.21,-0.31 -6.31,-0.5 0.54,-1.71 0.97,-3.48 1.82,-5.07 z"
     id="path3015"
     inkscape:connector-curvature="0"
     style="fill:#eeeeee" />
  <path
     d="m 202.77035,64.346851 c 0.83,-3.19 2.3,-6.3 5.65,-7.41 0.97,1.89 2.01,3.77 2.79,5.76 l 0.25,0.76 c -2.79,1.03 -5.76,1.38 -8.69,0.89 z"
     id="path3017"
     inkscape:connector-curvature="0"
     style="fill:#757678" />
  <path
     d="m 141.93035,60.036851 c 1.59,-0.45 3.26,-0.5 4.9,-0.66 -0.13,1.67 -0.02,3.42 -0.57,5.03 -1.38,1.78 -4,1.15 -5.95,1.58 0.41,-1.95 -0.3,-4.67 1.62,-5.95 z"
     id="path3019"
     inkscape:connector-curvature="0"
     style="fill:#eeeeee" />
  <path
     d="m 196.81035,67.886851 c 1.52,-1.17 3.56,-1.31 5.34,-1.88 -0.13,2.2 0.71,5.19 -1.55,6.59 -1.89,0.38 -3.84,0.35 -5.75,0.44 0.57,-1.74 0.92,-3.61 1.96,-5.15 z"
     id="path3021"
     inkscape:connector-curvature="0"
     style="fill:#757678" />
  <path
     d="m 124.62035,69.806851 c 0.68,-2.41 3.55,-2.61 5.48,-3.52 0.81,4.27 1.31,8.59 1.33,12.93 0.15,3.28 -0.15,6.98 2.09,9.68 3.73,0.89 4.88,-3.38 6.05,-6 -0.48,3.1 -0.37,6.74 -2.84,9.07 -2.93,0.13 -6.06,-1.64 -6.45,-4.76 -0.96,-5.42 -0.58,-11.12 -3.03,-16.21 -4.41,9.38 -1.4,19.83 -2.86,29.689999 -0.91,5.71 -6.21,8.98 -9.84,12.95 -3.42,3.13 -5.83,7.49 -9.98,9.74 -10.590004,2.6 -22.570004,-2.67 -32.350004,3.62 5.65,1.62 11.62,1.44 17.28,2.96 2.52,0.67 3.37,3.52 3.38,5.85 -4.86,4.27 -11.84,3.26 -17.74,4.72 -3.15,0.53 -5.41,2.94 -7.58,5.08 -11.97,12.05 -24.52,23.57 -35.7,36.38 -5.37,5.93 -3.67,14.42 -5.22,21.64 -0.38,2.55 -2.68,4.05 -4.36,5.75 -3.66,-7.71 -3.68,-16.31 -3.21,-24.64 1.4,5.04 2.52,10.16 4,15.19 1.96,-5.05 2.82,-10.4 4.07,-15.63 0.88,-3.96 4.8,-5.9 7.46,-8.55 9.48,-9.2 18.51,-18.87 28.11,-27.96 2.96,-2.72 4.98,-6.38 8.22,-8.8 5.28,-2.13 11.1,-2.27 16.64,-3.43 0.04,-0.93 0.09,-1.85 0.15,-2.77 -5.94,-0.6 -11.94,-2.04 -17.92,-1.17 -0.95,1.7 -1.54,3.57 -2.21,5.4 -2.43,1.39 -4.95,2.73 -6.98,4.7 -9.85,10.14 -20.08,19.91 -29.94,30.03 -3.37,4.42 -7.12,8.61 -12.07,11.3 -0.99,-1.38 -2.09,-2.69 -3.18,-4 -5.7399999,8.71 -2.37,19.46 -4.66,29.06 -0.26,-7.29 -1.0699999,-14.62 -0.22,-21.9 0.31,-2.76 1.29,-5.43 2.86,-7.73 6.43,-9.39 14.58,-17.39 22.69,-25.32 8.51,-8.17 16.19,-17.27 25.74,-24.29 3.92,-2.92 7.76,-6.66 12.88,-7.11 8.5,-0.78 17.04,0.35 25.560004,0.19 5.74,-0.09 9,-5.31 12.68,-8.91 4.32,-4.75 10.29,-9.29 10.48,-16.289999 0.29,-8.96 -1.87,-18.25 1.19,-26.94 z"
     id="path3023"
     inkscape:connector-curvature="0"
     style="fill:#b0b1b2" />
  <path
     d="m 132.92035,69.686851 c 0.63,-2.81 4.11,-1.27 6.06,-1.33 -1.15,6.11 -0.75,12.9 -4.31,18.26 -1.21,-5.53 -2.39,-11.26 -1.75,-16.93 z"
     id="path3025"
     inkscape:connector-curvature="0"
     style="fill:#eeeeee" />
  <path
     d="m 205.67035,67.606851 c 2.2,-0.33 4.44,-0.2 6.66,-0.18 -0.82,2.24 -1.58,4.73 -3.81,5.98 -3.7,2.28 -5.86,6.17 -9.2,8.84 -3.01,2.33 -5.02,5.65 -8,7.99 -3.26,2.42 -5.14,6.27 -8.67,8.37 -2.83,1.579999 -4.08,4.659999 -6.14,6.989999 -3.23,1.63 -7.23,1.83 -10.67,0.78 -0.95,-1.97 -1.01,-5.05 1.03,-6.36 3.61,-0.809999 7.36,-0.349999 10.99,-1.009999 1.26,-1.82 1.73,-4.02 2.32,-6.12 2.26,-0.92 4.54,-1.81 6.81,-2.72 0.69,-1.93 1.17,-3.98 2.32,-5.7 1.78,-1.01 3.76,-1.59 5.54,-2.6 1.12,-1.7 1.63,-3.7 2.34,-5.59 1.89,-0.71 3.9,-1.22 5.61,-2.33 1.13,-2.03 1.75,-4.3 2.87,-6.34 z"
     id="path3027"
     inkscape:connector-curvature="0"
     style="fill:#d2d4d2" />
  <path
     d="m 188.79035,75.896851 c 1.55,-1.09 3.49,-1.36 5.26,-1.93 -0.21,1.83 -0.29,3.69 -0.8,5.47 -1.31,2.26 -4.14,1.8 -6.33,1.84 0.56,-1.8 0.7,-3.85 1.87,-5.38 z"
     id="path3029"
     inkscape:connector-curvature="0"
     style="fill:#757678" />
  <path
     d="m 154.71035,82.376851 c 2.58,0.13 5.89,-0.94 7.82,1.32 0.57,1.62 0.86,3.38 0.59,5.08 -5.89,3.39 -9.97,8.87 -14.67,13.629999 -6.61,6.42 -11.82,14.14 -18.92,20.09 -7.54,8.53 -16.55,15.52 -24.62,23.51 -6.380004,5.69 -11.740004,12.74 -19.520004,16.65 -1.32,-2.17 -3.36,-4.56 -2.16,-7.24 0.6,-2.7 3.8,-3 5.85,-4.16 1.28,-2.66 3.27,-4.86 5.92,-6.2 2.72,-1.3 3.95,-4.09 5.220004,-6.63 7.84,-4.7 12.59,-12.9 19.55,-18.65 3.33,-4.34 7.48,-7.9 11.15,-11.93 2.06,-2.22 5.1,-3.36 6.78,-5.96 2.76,-4.559999 7.64,-7.119999 11.02,-11.149999 2.95,-2.03 5.22,-4.78 5.99,-8.36 z"
     id="path3031"
     inkscape:connector-curvature="0"
     style="fill:#d2d4d2" />
  <path
     d="m 181.36035,83.576851 c 1.39,-0.75 2.94,-1.13 4.44,-1.61 -0.06,2.22 -0.13,4.45 -0.21,6.67 -1.92,0.12 -3.83,0.24 -5.74,0.36 0.21,-1.84 -0.24,-4.19 1.51,-5.42 z"
     id="path3033"
     inkscape:connector-curvature="0"
     style="fill:#757678" />
  <path
     d="m 163.24035,131.67685 c 6.42,-3.41 13.92,-2.08 20.87,-2.33 8.82,0.3 18.42,-1.2 26.4,3.49 6,3.49 12.4,6.57 17.26,11.65 5.73,5.5 9.66,12.5 13.58,19.32 3.02,5.26 2.69,11.53 2.73,17.38 -0.11,6.99 0.39,13.99 -0.23,20.97 -0.61,7.47 -5.25,13.69 -9.16,19.8 -5.51,8.38 -13.67,14.58 -22.44,19.22 -6.19,3.15 -13.31,3.4 -20.11,3.67 -7.59,0.11 -15.25,0.19 -22.75,-1.16 -6.48,-1.12 -11.96,-4.99 -17.24,-8.65 -8.46,-5.91 -14.25,-14.74 -19.07,-23.68 -3.55,-6.46 -3.02,-14.06 -2.98,-21.17 0.23,-6.4 -0.1,-12.8 0.02,-19.2 0.89,-5.99 4.92,-10.78 7.57,-16.05 5.3,-10.73 16.29,-16.48 25.55,-23.26 z"
     id="path3039"
     inkscape:connector-curvature="0"
     style="fill:#aad064" />
  <path
     d="m 55.420346,137.56685 c 2.89,-2.9 5.2,-6.74 9.52,-7.64 0.42,1.76 2.38,3.96 0.74,5.62 -1.86,1.12 -3.99,1.66 -6.02,2.39 -0.94,2.24 -1.61,4.64 -3.02,6.65 -1.54,1.05 -3.43,1.39 -5.17,1.99 -0.8,1.87 -1.59,3.75 -2.35,5.64 -1.89,0.77 -3.78,1.54 -5.67,2.32 -0.78,1.89 -1.55,3.78 -2.32,5.67 -1.9,0.78 -3.79,1.55 -5.68,2.33 -0.77,1.88 -1.54,3.76 -2.3,5.65 -1.87,0.77 -3.74,1.56 -5.59,2.36 -1.07,2.23 -1.83,4.71 -3.56,6.54 -1.71,1.01 -3.55,-0.7 -5.23,-1.07 0.65,-1.37 1.12,-2.87 2.1,-4.05 11.52,-11.46 22.86,-23.11 34.55,-34.4 z"
     id="path3041"
     inkscape:connector-curvature="0"
     style="fill:#949698" />
  <path
     d="m 171.46035,130.57685 c 5.51,-0.84 11.09,-0.15 16.64,-0.14 4.96,0.17 10,-0.22 14.9,0.79 3.44,0.72 6.16,3.07 9.15,4.76 3.37,2.01 7.23,3.26 10.19,5.94 2.79,2.55 5.51,5.18 8.21,7.84 3.01,2.92 4.52,6.92 6.6,10.48 1.88,3.32 4.28,6.52 4.8,10.4 0.88,6.14 0.4,12.36 0.54,18.53 -0.01,6.22 0.62,12.95 -2.87,18.45 -3.34,5.37 -5.46,11.54 -9.92,16.15 -3.76,3.97 -7.35,8.38 -12.47,10.65 -5.27,2.38 -9.77,6.58 -15.61,7.55 -5.79,0.93 -11.68,0.51 -17.51,0.62 -6.42,0 -13.34,0.19 -18.92,-3.52 -5.19,-3.55 -11.55,-5.43 -15.86,-10.2 -3.41,-3.62 -7.16,-7.06 -9.46,-11.54 -1.9,-3.74 -4.01,-7.35 -5.99,-11.03 -2.81,-5.25 -2.11,-11.4 -2.17,-17.12 0.18,-6.28 -0.37,-12.59 0.38,-18.83 0.38,-3.62 2.96,-6.37 4.73,-9.37 2.49,-3.93 3.38,-8.89 7.06,-12 4.7,-4 8.83,-8.87 14.59,-11.41 4.56,-1.92 8.05,-6 12.99,-7 z"
     id="path3043"
     inkscape:connector-curvature="0"
     style="fill:#8ab649" />
  <path
     d="m 69.800346,131.61685 c 5.98,-0.87 11.98,0.57 17.92,1.17 -0.06,0.92 -0.11,1.84 -0.15,2.77 -5.54,1.16 -11.36,1.3 -16.64,3.43 -3.24,2.42 -5.26,6.08 -8.22,8.8 -9.6,9.09 -18.63,18.76 -28.11,27.96 -2.66,2.65 -6.58,4.59 -7.46,8.55 -1.25,5.23 -2.11,10.58 -4.07,15.63 -1.48,-5.03 -2.6,-10.15 -4,-15.19 -0.12,-0.42 -0.35,-1.27 -0.47,-1.69 4.95,-2.69 8.7,-6.88 12.07,-11.3 9.86,-10.12 20.09,-19.89 29.94,-30.03 2.03,-1.97 4.55,-3.31 6.98,-4.7 0.67,-1.83 1.26,-3.7 2.21,-5.4 z"
     id="path3045"
     inkscape:connector-curvature="0"
     style="fill:#eeeeee" />
  <path
     d="m 169.33035,133.59685 c 3.85,-2.21 8.49,-1.76 12.77,-1.79 7.6,0.3 15.35,-0.51 22.79,1.5 0.04,1.27 0.08,2.53 0.13,3.8 -8.3,0.87 -16.62,-0.18 -24.92,0.32 -2.82,0.06 -5.68,0.41 -8.47,-0.13 -1.67,-0.24 -3.16,-2.04 -2.3,-3.7 z"
     id="path3047"
     inkscape:connector-curvature="0"
     style="fill:#5c9a0b" />
  <path
     d="m 151.11035,145.22685 c 2.4,-1.94 4.51,-4.34 7.33,-5.69 2.21,-0.68 4.2,1.08 6.16,1.82 -2.45,2.54 -5.84,3.66 -8.67,5.63 -2.18,2.51 -4.12,5.27 -6.89,7.2 -2.65,1.76 -3.48,4.95 -4.59,7.74 -1.36,-0.09 -2.72,-0.19 -4.07,-0.28 0.17,-2.62 -0.08,-5.5 1.44,-7.8 2.36,-3.58 6.14,-5.81 9.29,-8.62 z"
     id="path3049"
     inkscape:connector-curvature="0"
     style="fill:#5c9a0b" />
  <path
     d="m 164.97035,144.91685 c 2.65,-2.01 4.33,-5.85 8.16,-5.7 9.62,-0.37 19.3,-0.21 28.91,0.29 4.22,0.03 5.21,5.28 8.78,6.61 2.11,0.74 4.31,1.16 6.48,1.68 1.07,2.11 1.54,4.88 3.81,6.09 2.11,1.46 4.84,2.26 6.4,4.4 l 0.3,0.65 c -0.32,1.34 -0.65,2.67 -1.01,4.01 -1.74,-0.06 -3.49,0.03 -5.19,-0.31 -2.71,-2.52 -4.38,-6.17 -7.82,-7.86 -6.37,-3.19 -12.02,-8.39 -19.45,-8.87 -8.58,-0.78 -18.09,-1.02 -25.55,3.99 -2.93,1.89 -6.04,3.49 -9.03,5.28 -3.09,1.75 -4.61,5.13 -7.16,7.47 -1.76,0.36 -3.57,0.25 -5.35,0.3 0.35,-2.12 0.53,-4.28 1.18,-6.33 1.66,-1.41 3.68,-2.33 5.28,-3.81 1.45,-1.6 2.41,-3.58 3.88,-5.17 2.36,-1.17 5.09,-1.41 7.38,-2.72 z"
     id="path3051"
     inkscape:connector-curvature="0"
     style="fill:#aad064" />
  <path
     d="m 210.34035,142.87685 c -0.15,-2.05 1.9,-3.57 3.82,-3.49 3.12,-0.19 5.52,2.13 7.63,4.1 5.04,5.12 10.8,9.94 13.39,16.88 -2.47,1.56 -6.34,2.07 -7.37,-1.43 l -0.3,-0.65 c -1.35,-4.13 -5.57,-6.14 -7.87,-9.64 -2.08,-3.31 -6.25,-3.76 -9.3,-5.77 z"
     id="path3053"
     inkscape:connector-curvature="0"
     style="fill:#5c9a0b" />
  <path
     d="m 168.79035,149.89685 c 7.46,-5.01 16.97,-4.77 25.55,-3.99 7.43,0.48 13.08,5.68 19.45,8.87 3.44,1.69 5.11,5.34 7.82,7.86 1.7,0.34 3.45,0.25 5.19,0.31 0.12,0.68 0.25,1.36 0.35,2.05 0.12,5.74 -0.38,11.88 3.4,16.7 1.14,-1.19 2.28,-2.38 3.43,-3.56 0.21,1.83 0.47,3.66 0.56,5.51 -0.86,3.59 -2.17,7.05 -3.56,10.46 -3.75,-6.87 -2.86,-15.02 -5.75,-22.14 -2.06,-4.76 -6.19,-8.13 -9.15,-12.29 -0.51,-0.72 -1.01,-1.44 -1.5,-2.16 -3.6,-1.2 -7.38,-2.12 -10.51,-4.35 -3.23,-2.22 -6.15,-5.26 -10.18,-5.95 -4.5,-0.87 -9.18,-0.87 -13.68,-0.02 -4.02,0.66 -6.88,3.76 -10.07,5.98 -3.19,2.32 -7.12,3.17 -10.82,4.31 -0.59,1.06 -1.16,2.13 -1.79,3.17 -3.46,4.27 -7.98,8.05 -9.41,13.59 -1.68,6.33 -1.94,13.06 -4.94,19.01 -1.87,-3.86 -3.43,-7.93 -3.87,-12.24 -0.08,-1.21 -0.17,-2.42 -0.25,-3.63 0.42,-0.29 1.27,-0.88 1.69,-1.17 0.94,1.9 2.04,3.73 3.14,5.55 3.05,-5.06 3,-10.95 3.06,-16.64 0.07,-0.74 0.18,-1.46 0.3,-2.18 1.78,-0.05 3.59,0.06 5.35,-0.3 2.55,-2.34 4.07,-5.72 7.16,-7.47 2.99,-1.79 6.1,-3.39 9.03,-5.28 z"
     id="path3057"
     inkscape:connector-curvature="0"
     style="fill:#97cc25" />
  <path
     d="m 180.21035,147.19685 c 4.5,-0.85 9.18,-0.85 13.68,0.02 4.03,0.69 6.95,3.73 10.18,5.95 3.13,2.23 6.91,3.15 10.51,4.35 0.49,0.72 0.99,1.44 1.5,2.16 -0.12,1.91 -0.44,3.86 -0.06,5.76 2.23,3.61 6.24,5.79 8.17,9.64 2.82,5.82 2.5,12.6 0.52,18.63 -1.13,-1.31 -2.24,-2.61 -3.34,-3.92 -0.58,1.63 -1.17,3.26 -1.75,4.89 0.08,-5.22 0.76,-10.55 -0.38,-15.7 -6.67,-3.49 -14.66,0.26 -21.64,-2.17 -1.36,-0.35 -1.8,-1.84 -1.93,-3.05 -0.73,-5.91 1.03,-11.98 -0.44,-17.8 -1.73,-2.63 -5.37,-2.43 -8.13,-2.58 -2.77,0.15 -6.42,-0.06 -8.12,2.58 -1.85,6.51 1.14,13.57 -1.13,19.96 -6.8,4.28 -15.91,-0.89 -22.87,3.08 -1.18,5.14 -0.48,10.46 -0.4,15.68 -0.59,-1.63 -1.17,-3.26 -1.74,-4.89 -1.11,1.31 -2.23,2.61 -3.34,3.91 -1.82,-5.54 -2.27,-11.66 -0.13,-17.18 1.52,-4.44 5.82,-6.9 8.48,-10.55 1.23,-1.57 -0.12,-3.59 -0.32,-5.31 0.63,-1.04 1.2,-2.11 1.79,-3.17 3.7,-1.14 7.63,-1.99 10.82,-4.31 3.19,-2.22 6.05,-5.32 10.07,-5.98 z"
     id="path3059"
     inkscape:connector-curvature="0"
     style="fill:#75b801" />
  <path
     d="m 178.98035,155.95685 c 1.7,-2.64 5.35,-2.43 8.12,-2.58 2.76,0.15 6.4,-0.05 8.13,2.58 1.47,5.82 -0.29,11.89 0.44,17.8 0.13,1.21 0.57,2.7 1.93,3.05 6.98,2.43 14.97,-1.32 21.64,2.17 1.14,5.15 0.46,10.48 0.38,15.7 -7.55,0.73 -15.48,-1.25 -22.77,1.26 -2.44,6.81 -0.72,14.26 -1,21.34 -5.71,1.87 -11.8,1.87 -17.5,0 -0.3,-7.07 1.46,-14.53 -1.01,-21.32 -7.27,-2.56 -15.21,-0.54 -22.76,-1.28 -0.08,-5.22 -0.78,-10.54 0.4,-15.68 6.96,-3.97 16.07,1.2 22.87,-3.08 2.27,-6.39 -0.72,-13.45 1.13,-19.96 z"
     id="path3061"
     inkscape:connector-curvature="0"
     style="fill:#d2d4d2" />
  <path
     d="m 180.80035,157.64685 c 0.63,-2.69 4.2,-2.17 6.3,-2.4 2.1,0.23 5.67,-0.29 6.3,2.4 0.83,6.67 -1.21,13.47 0.31,20.09 0.37,1.99 2.74,2.07 4.33,2.26 6.58,0.36 13.18,-0.85 19.74,0.16 0.09,4.03 0.09,8.05 -0.01,12.08 -5.56,0.73 -11.16,0.15 -16.74,0.04 -2.49,0.07 -5.85,-0.02 -7.11,2.62 -2.26,6.8 1.22,14.26 -1.06,21 -3.24,2.39 -8.29,2.37 -11.53,0.01 -2.26,-6.75 1.21,-14.2 -1.05,-21.01 -1.26,-2.64 -4.62,-2.55 -7.11,-2.62 -5.58,0.11 -11.17,0.69 -16.74,-0.04 -0.1,-4.03 -0.1,-8.05 -0.02,-12.08 6.57,-1.01 13.17,0.21 19.75,-0.16 1.59,-0.18 3.96,-0.27 4.33,-2.26 1.52,-6.63 -0.52,-13.42 0.31,-20.09 z"
     id="path3063"
     inkscape:connector-curvature="0"
     style="fill:#ffffff" />
  <path
     d="m 216.08035,159.67685 c 2.96,4.16 7.09,7.53 9.15,12.29 2.89,7.12 2,15.27 5.75,22.14 1.39,-3.41 2.7,-6.87 3.56,-10.46 l 0.21,-0.8 c -0.63,7.5 0.47,15.43 -2.57,22.52 -4.19,7.99 -10.23,14.95 -17.25,20.58 -4.02,3.2 -8.16,6.85 -13.44,7.59 -5.43,0.78 -10.93,0.45 -16.39,0.54 -4.42,-0.06 -8.88,0.14 -13.24,-0.7 -4.92,-0.98 -8.78,-4.41 -12.59,-7.43 -7.02,-5.63 -13.06,-12.58 -17.23,-20.58 -3.34,-7.65 -2.11,-16.24 -2.73,-24.35 0.44,4.31 2,8.38 3.87,12.24 3,-5.95 3.26,-12.68 4.94,-19.01 1.43,-5.54 5.95,-9.32 9.41,-13.59 0.2,1.72 1.55,3.74 0.32,5.31 -2.66,3.65 -6.96,6.11 -8.48,10.55 -2.14,5.52 -1.69,11.64 0.13,17.18 1.11,-1.3 2.23,-2.6 3.34,-3.91 0.57,1.63 1.15,3.26 1.74,4.89 7.55,0.74 15.49,-1.28 22.76,1.28 2.47,6.79 0.71,14.25 1.01,21.32 5.7,1.87 11.79,1.87 17.5,0 0.28,-7.08 -1.44,-14.53 1,-21.34 7.29,-2.51 15.22,-0.53 22.77,-1.26 0.58,-1.63 1.17,-3.26 1.75,-4.89 1.1,1.31 2.21,2.61 3.34,3.92 1.98,-6.03 2.3,-12.81 -0.52,-18.63 -1.93,-3.85 -5.94,-6.03 -8.17,-9.64 -0.38,-1.9 -0.06,-3.85 0.06,-5.76 z"
     id="path3065"
     inkscape:connector-curvature="0"
     style="fill:#88c601" />
  <path
     d="m 57.220346,171.32685 c 3.63,-3.47 6.6,-7.81 11.04,-10.32 3.33,-0.48 5.37,2.65 7.38,4.73 2.49,3 6,4.88 8.71,7.64 0.5,4.03 -1.89,7.7 -4.63,10.42 -6.68,6.68 -13.17,13.55 -20.27,19.79 -1.31,1.11 -3.04,3.12 -1.6,4.79 1.86,2.67 5.33,2.35 8.18,2.33 0.7,-2.14 1.42,-4.26 2.17,-6.37 2.55,-1.24 5.43,-2.35 6.85,-4.99 2.01,-3.99 6.69,-5.42 8.85,-9.29 1.48,-2.57 4.32,-3.69 6.51,-5.5 1.19,-1.41 1.7,-3.23 2.48,-4.86 1.95,-0.93 4.01,-1.68 5.72,-3.02 1.860004,-3.9 0.75,-8.52 2.200004,-12.55 0.3,-0.18 0.9,-0.54 1.2,-0.72 2.27,-0.23 4.54,0.06 6.81,0.2 -0.01,3.46 0.29,7.06 -0.94,10.36 -1.26,2.59 -3.7,4.31 -5.62,6.37 -10.380004,10.66 -20.820004,21.23 -31.510004,31.57 -2.43,2.19 -4.29,5.04 -7.08,6.81 -2.91,1.05 -6.24,1.23 -9.19,0.28 -2.54,-2.54 -2.98,-6.96 -6.69,-8.32 -5.47,-2.41 -9.29,-7.4 -11.96,-12.57 0.17,-2.87 1.89,-5.34 3.44,-7.65 5.11,-7.15 12.02,-12.71 17.95,-19.13 z"
     id="path3067"
     inkscape:connector-curvature="0"
     style="fill:#b0b1b2" />
  <path
     d="m 141.36035,165.65685 c 1.86,-0.18 3.72,-0.37 5.59,-0.53 -0.06,5.69 -0.01,11.58 -3.06,16.64 -1.1,-1.82 -2.2,-3.65 -3.14,-5.55 -0.65,-3.52 0.14,-7.07 0.61,-10.56 z"
     id="path3069"
     inkscape:connector-curvature="0"
     style="fill:#aad064" />
  <path
     d="m 230.55035,181.69685 c -3.78,-4.82 -3.28,-10.96 -3.4,-16.7 1.98,0.14 3.96,0.29 5.94,0.45 0.6,4.2 0.86,8.44 0.89,12.69 -1.15,1.18 -2.29,2.37 -3.43,3.56 z"
     id="path3071"
     inkscape:connector-curvature="0"
     style="fill:#aad064" />
  <path
     d="m 51.050346,185.13685 c 6.11,-5.71 11.31,-12.63 18.97,-16.41 2.76,1.77 5.85,3.23 7.99,5.8 1.61,3.22 -0.35,6.68 -2.43,9.16 -4.67,5.65 -10.12,10.61 -15.36,15.73 -3.78,3.09 -7.89,6.83 -13.01,7.03 -3.48,-1.37 -4.93,-5.74 -4.47,-9.22 0.74,-5.1 4.89,-8.63 8.31,-12.09 z"
     id="path3073"
     inkscape:connector-curvature="0"
     style="fill:#d2d4d2" />
  <path
     d="m 132.69035,181.19685 c 0,-4.68 -0.49,-10.58 4.47,-13.06 0.96,3.01 1.76,6.08 1.9,9.25 0.08,1.21 0.17,2.42 0.25,3.63 0.62,8.11 -0.61,16.7 2.73,24.35 4.17,8 10.21,14.95 17.23,20.58 3.81,3.02 7.67,6.45 12.59,7.43 4.36,0.84 8.82,0.64 13.24,0.7 5.46,-0.09 10.96,0.24 16.39,-0.54 5.28,-0.74 9.42,-4.39 13.44,-7.59 7.02,-5.63 13.06,-12.59 17.25,-20.58 3.04,-7.09 1.94,-15.02 2.57,-22.52 0.41,-4.8 1.11,-9.56 1.62,-14.34 5.04,0.9 5.04,6.61 5.11,10.64 -0.12,6.36 0.23,12.73 -0.19,19.08 -0.21,3.39 -2.75,5.87 -4.42,8.62 -2.66,3.96 -3.2,9.04 -6.43,12.66 -3,3.34 -6.23,6.45 -9.42,9.59 -3.58,3.61 -8.87,4.32 -12.98,7.09 -3.15,2.1 -6.4,4.48 -10.34,4.61 -7.05,0.43 -14.15,0.44 -21.2,0 -3.95,-0.13 -7.19,-2.52 -10.35,-4.61 -4.1,-2.77 -9.39,-3.48 -12.96,-7.08 -3.2,-3.14 -6.43,-6.26 -9.43,-9.6 -3.23,-3.62 -3.77,-8.7 -6.43,-12.66 -1.68,-2.75 -4.22,-5.23 -4.43,-8.61 -0.45,-5.67 -0.03,-11.36 -0.21,-17.04 z"
     id="path3075"
     inkscape:connector-curvature="0"
     style="fill:#5c9a0b" />
  <path
     d="m 66.530346,175.55685 c 2.84,-0.61 7.58,0.06 7.67,3.75 0.56,2.47 -1.27,4.5 -2.79,6.19 -3.26,3.4 -6.76,6.57 -9.97,10.02 -2.36,2.33 -4.61,5 -7.74,6.3 -2.43,0.65 -4.97,0.25 -7.43,0.2 0.03,-2.7 -0.6,-5.59 0.49,-8.15 2.39,-2.94 5.76,-4.89 8.37,-7.64 3.8,-3.54 6.93,-7.93 11.4,-10.67 z"
     id="path3077"
     inkscape:connector-curvature="0"
     style="fill:#ffffff" />
  <path
     d="m 104.76035,198.84685 c 7.25,-6.87 13.46,-14.85 18.21,-23.63 -0.57,3.83 -1.76,7.62 -4.01,10.81 -5.11,7.43 -11.5,13.85 -17.88,20.17 -7.550004,7.44 -14.900004,15.08 -22.620004,22.34 -3.82,3.64 -7.94,7.29 -13.12,8.77 -6.22,1.77 -12.73,2.45 -19.18,2.44 -7.64,-0.2 -15.75,-1.8 -21.64,-7 -6.36,-5.66 -11.22,-12.92 -14.32,-20.84 0.16,-1.01 0.32,-2.02 0.48,-3.02 3.14,7.25 7.93,13.66 13.32,19.39 2.61,2.77 5.73,5.21 9.43,6.32 10.1,3.1 21.11,2.91 31.21,-0.08 7.01,-2.09 12.03,-7.72 17.09,-12.67 7.49,-7.85 15.18,-15.51 23.030004,-23 z"
     id="path3079"
     inkscape:connector-curvature="0"
     style="fill:#b0b1b2" />
  <path
     d="m 74.710346,192.25685 c 1.07,-3.11 3.39,-5.39 6.48,-6.48 0.03,2.01 1.48,4.59 -0.3,6.21 -1.66,1.67 -4.18,0.31 -6.18,0.27 z"
     id="path3081"
     inkscape:connector-curvature="0"
     style="fill:#757678" />
  <path
     d="m 66.690346,200.27685 c 1.11,-3.08 3.4,-5.38 6.47,-6.5 0.12,2.19 1.62,5.27 -0.8,6.74 -1.83,0.66 -3.81,-0.11 -5.67,-0.24 z"
     id="path3083"
     inkscape:connector-curvature="0"
     style="fill:#757678" />
  <path
     d="m 58.630346,208.19685 c 0.79,-3.34 3.48,-5.29 6.57,-6.37 0.28,2.37 0.51,4.75 0.72,7.14 -2.44,-0.21 -4.87,-0.46 -7.29,-0.77 z"
     id="path3085"
     inkscape:connector-curvature="0"
     style="fill:#757678" />
</svg>
